/* XPM */
static char *_____________[] = {
/* columns rows colors chars-per-pixel */
"16 16 72 1",
"  c #CDA000",
". c #CDA100",
"X c #CFA200",
"o c #D0A200",
"O c #D1A200",
"+ c #D1A300",
"@ c #D4A300",
"# c #D1A400",
"$ c #D2A500",
"% c #D3A500",
"& c #D4A500",
"* c #D5A500",
"= c #D5A700",
"- c #D6A600",
"; c #D6A700",
": c #D7A700",
"> c #D8A800",
", c #DEAB00",
"< c #E1AE00",
"1 c #E2AE00",
"2 c #E2AF00",
"3 c #E2B000",
"4 c #E3B000",
"5 c #E7B100",
"6 c #E4B200",
"7 c #E5B200",
"8 c #E6B200",
"9 c #E7B200",
"0 c #E7B300",
"q c #E8B200",
"w c #E8B300",
"e c #E9B400",
"r c #E8B500",
"t c #EAB400",
"y c #EAB500",
"u c #ECB700",
"i c #EEB700",
"p c #EDB800",
"a c #EEB900",
"s c #F0B900",
"d c #F1B900",
"f c #F2B900",
"g c #F4BB00",
"h c #F5BB00",
"j c #F7BB00",
"k c #F4BC00",
"l c #F5BD00",
"z c #F6BC00",
"x c #F7BC00",
"c c #F7BE00",
"v c #F8BC00",
"b c #F9BC00",
"n c #F8BE00",
"m c #F8BF00",
"M c #F9BF00",
"N c #FCBF00",
"B c #FEBF00",
"V c #FFBF00",
"C c #FDC100",
"Z c #FEC000",
"A c #FFC000",
"S c #FEC100",
"D c #FFC100",
"F c #FCC200",
"G c #FFC200",
"H c #FFC300",
"J c #FCC400",
"K c #FFC400",
"L c #FFC500",
"P c #FFC600",
"I c #FFC700",
"U c None",
/* pixels */
"UUUUU>0y0<>UUUUU",
"UUUUk9UUUU#9UUUU",
"UUUJ#UUUUUUUaUUU",
"UUl9UUUUUUUUUaUU",
"U JUUUs9U:#UU9#U",
"U9BUUUUJD3UUU:yU",
"UhbUUU3DD+U UUkU",
"UlBUU#,hD99UU:nU",
"UyJ+UUUnDDsUUsaU",
"U:JlUU DDDyU J:U",
"UUnDsUlBBD<:DnUU",
"UUUhnJBBBDqnJUUU",
"UUU<DDDDDhqJ UUU",
"UUUU<lBDD:@UUUUU",
"UUUUUUUUUUUUUUUU",
"UUUUUUUUUUUUUUUU"
};
