/* XPM */
static char *_____________[] = {
/* columns rows colors chars-per-pixel */
"32 32 144 2",
"   c #BF9600",
".  c #C39900",
"X  c #C49900",
"o  c #C59B00",
"O  c #C69B00",
"+  c #C79D00",
"@  c #C89B00",
"#  c #C89C00",
"$  c #C89D00",
"%  c #C99D00",
"&  c #CA9D00",
"*  c #C99E00",
"=  c #CA9E00",
"-  c #CB9E00",
";  c #CA9F00",
":  c #CB9F00",
">  c #CC9E00",
",  c #CC9F00",
"<  c #CCA000",
"1  c #CDA000",
"2  c #CFA200",
"3  c #D0A200",
"4  c #D1A300",
"5  c #D2A300",
"6  c #D3A300",
"7  c #D2A400",
"8  c #D3A500",
"9  c #D5A400",
"0  c #D4A500",
"q  c #D5A500",
"w  c #D5A600",
"e  c #D7A600",
"r  c #D7A700",
"t  c #D8A700",
"y  c #DAA700",
"u  c #D8A800",
"i  c #D9A800",
"p  c #D9A900",
"a  c #DAA800",
"s  c #DBA800",
"d  c #DAA900",
"f  c #DBAA00",
"g  c #DCA900",
"h  c #DDAA00",
"j  c #DEAB00",
"k  c #DEAC00",
"l  c #DFAC00",
"z  c #DFAD00",
"x  c #E0AC00",
"c  c #E0AD00",
"v  c #E1AD00",
"b  c #E0AE00",
"n  c #E1AE00",
"m  c #E2AE00",
"M  c #E3AE00",
"N  c #E2AF00",
"B  c #E3AF00",
"V  c #E4AF00",
"C  c #E3B000",
"Z  c #E5B000",
"A  c #E5B100",
"S  c #E6B000",
"D  c #E6B100",
"F  c #E7B100",
"G  c #E6B200",
"H  c #E7B200",
"J  c #E6B400",
"K  c #E8B200",
"L  c #E9B200",
"P  c #E8B300",
"I  c #E9B300",
"U  c #E8B400",
"Y  c #E9B400",
"T  c #EAB400",
"R  c #EAB500",
"E  c #EBB600",
"W  c #EBB700",
"Q  c #ECB500",
"!  c #EDB500",
"~  c #ECB600",
"^  c #EDB600",
"/  c #ECB700",
"(  c #EEB600",
")  c #EFB600",
"_  c #EEB700",
"`  c #EFB700",
"'  c #EFB900",
"]  c #F0B800",
"[  c #F0B900",
"{  c #F1B900",
"}  c #F0BA00",
"|  c #F2BA00",
" . c #F3BB00",
".. c #F4BA00",
"X. c #F5BA00",
"o. c #F4BB00",
"O. c #F5BB00",
"+. c #F7BB00",
"@. c #F3BC00",
"#. c #F4BC00",
"$. c #F6BC00",
"%. c #F6BD00",
"&. c #F7BD00",
"*. c #F7BE00",
"=. c #F7BF00",
"-. c #F9BC00",
";. c #F8BF00",
":. c #F9BF00",
">. c #FABE00",
",. c #FBBE00",
"<. c #FABF00",
"1. c #FBBF00",
"2. c #FCBD00",
"3. c #FCBE00",
"4. c #FDBE00",
"5. c #FCBF00",
"6. c #FEBE00",
"7. c #FFBF00",
"8. c #F8C000",
"9. c #FAC000",
"0. c #FBC000",
"q. c #FBC100",
"w. c #FCC000",
"e. c #FCC100",
"r. c #FDC100",
"t. c #FEC000",
"y. c #FFC000",
"u. c #FEC100",
"i. c #FFC100",
"p. c #FCC200",
"a. c #FDC200",
"s. c #FDC300",
"d. c #FFC200",
"f. c #FEC300",
"g. c #FFC300",
"h. c #FDC400",
"j. c #FFC400",
"k. c #FFC500",
"l. c #FEC600",
"z. c #FFC600",
"x. c #FFC700",
"c. c #FFC800",
"v. c #FFC900",
"b. c None",
/* pixels */
"b.b.b.b.b.b.b.b.b.b.b.b.O f F ' } Y f + b.b.b.b.b.b.b.b.b.b.b.b.",
"b.b.b.b.b.b.b.b.b.b.B +.k.g.+.Y J Y } g.&.F b.b.b.b.b.b.b.b.b.b.",
"b.b.b.b.b.b.b.b.f 1.k.9.y b.b.b.b.b.b.b.r } g.f b.b.b.b.b.b.b.b.",
"b.b.b.b.b.b.b.Y k.k.z b.b.b.b.b.b.b.b.b.b.b.8 k.Q b.b.b.b.b.b.b.",
"b.b.b.b.b.b.} k.g.2 b.b.b.b.b.b.b.b.b.b.b.b.b.b.k.} b.b.b.b.b.b.",
"b.b.b.b.b.Y k.g.r b.b.b.b.b.b.b.b.b.b.b.b.b.b.b.b.v.Y b.b.b.b.b.",
"b.b.b.b.r k.g.F b.b.b.b.b.b.b.b.b.b.b.b.b.b.b.b.b.r v.y b.b.b.b.",
"b.b.b.b.g.4.g.b.b.b.b.% % b.b.b.b.b.b.b.b.b.b.b.b.b.} k.b.b.b.b.",
"b.b.b.z g.g.B b.b.b.b.r g.1.B b.b.b.b.b.r f b.b.b.b.5 k.z b.b.b.",
"b.b.b.&.g.g.% b.b.b.b.b.5 g.g.&., b.B k.&.b.b.b.b.b.b.g.8.b.b.b.",
"b.b.% g.4.4.b.b.b.b.b.b.b.} g.4.g.1.k.' b.b.b.b.b.b.b.Q k.% b.b.",
"b.b.f k.g.+.b.b.b.b.b.b.b.r g.g.4.g.F b.b.b.b.b.b.b.b.F v.f b.b.",
"b.b.L g.4.+.b.b.b.b.b.b.b.F g.4.4.g.L b.b.L Y b.b.b.b.F k.L b.b.",
"b.b.Q g.g.+.b.b.b.b.b.b.Y k.4.4.4.g.g.b.b.9 % b.b.b.b.F k.Q . b.",
"b.. } 4.4.4.b.b.b.b.b.} 9.F 1.4.g.4.g.O b.k.z b.b.b.b.Q k.} . b.",
"b.b.Q g.4.g.% b.b.b.5 f b.b.} g.4.4.4.g } g.b.b.b.b.b.1.g.Q b.b.",
"b.b.B g.4.g.B b.b.b.b.b.b.b.) g.4.g.4.4.g.Q b.b.b.b.5 g.g.B b.b.",
"b.b.5 g.4.g.9.b.b.b.b.b.b.b.g.4.4.4.4.4.g.F b.b.b.b.} g.g.5 b.b.",
"b.b.b.g.g.4.k.F b.b.b.b.b.B g.4.4.g.g.4.g.z b.b.b.8 g.4.g.b.b.b.",
"b.b.b.Q g.4.4.g.r b.b.b.b.1.g.4.4.4.4.4.k.g b.b.@ g.4.k.Q b.b.b.",
"b.b.b.% k.4.4.4.g.5 b.b.Y g.4.4.4.4.4.4.g., b.b.4.4.g.k.% b.b.b.",
"b.b.b.b.Y g.g.4.g.g.z F g.4.4.g.4.g.4.g.g.O % g.g.4.g.Q b.b.b.b.",
"b.b.b.b.b.9.g.g.1.4.g.g.4.4.4.4.4.g.4.4.+.r 9.g.4.g.9.b.b.b.b.b.",
"b.b.b.b.b.+ L g B 1.4.4.4.g.4.4.4.4.4.g.Q f 4.4.g.g.< b.b.b.b.b.",
"b.b.b.b.b.b.5 L 1.4.4.g.4.4.4.g.4.4.g.+.B B g.g.g.% b.b.b.b.b.b.",
"b.b.b.b.b.b.C k.g.4.4.4.4.4.4.4.g.4.g.F y L k.&.% b.b.b.b.b.b.b.",
"b.b.b.b.b.b.b.2 +.g.g.g.g.4.4.4.4.g.1.% g Q z b.b.b.b.b.b.b.b.b.",
"b.b.b.b.b.b.b.b.b.5 Q 4.g.g.g.g.g.g.% b.g b.b.b.b.b.b.b.b.b.b.b.",
"b.b.b.b.b.b.b.b.b.b.b.b.% r g B y b.b.% y b.b.b.b.b.b.b.b.b.b.b.",
"b.b.b.b.b.b.b.b.b.b.b.b.b.b.b.b.b.b.b.5 b.b.b.b.b.b.b.b.b.b.b.b.",
"b.b.b.b.b.b.b.b.b.b.b.b.b.b.b.b.b.b.b.g b.b.b.b.b.b.b.b.b.b.b.b.",
"b.b.b.b.b.b.b.b.b.b.b.b.b.b.b.b.b.b.b.% b.b.b.b.b.b.b.b.b.b.b.b."
};
