/* XPM */
static char *_____________[] = {
/* columns rows colors chars-per-pixel */
"48 48 176 2",
"   c #BA9200",
".  c #BB9300",
"X  c #BA9400",
"o  c #BC9400",
"O  c #BE9500",
"+  c #BF9600",
"@  c #C09700",
"#  c #C29800",
"$  c #C29900",
"%  c #C39900",
"&  c #C39A00",
"*  c #C49900",
"=  c #C49A00",
"-  c #C59A00",
";  c #C59B00",
":  c #C69B00",
">  c #C69C00",
",  c #C79C00",
"<  c #C89C00",
"1  c #C89D00",
"2  c #C99D00",
"3  c #CA9D00",
"4  c #CB9D00",
"5  c #C89E00",
"6  c #C99E00",
"7  c #CA9E00",
"8  c #CB9E00",
"9  c #CB9F00",
"0  c #CC9E00",
"q  c #CC9F00",
"w  c #CD9F00",
"e  c #CCA000",
"r  c #CDA000",
"t  c #CEA000",
"y  c #CFA200",
"u  c #D0A100",
"i  c #D1A100",
"p  c #D0A200",
"a  c #D1A200",
"s  c #D2A200",
"d  c #D2A300",
"f  c #D3A300",
"g  c #D3A400",
"h  c #D4A400",
"j  c #D5A400",
"k  c #D4A500",
"l  c #D5A500",
"z  c #D6A500",
"x  c #D5A600",
"c  c #D6A600",
"v  c #D7A600",
"b  c #D6A700",
"n  c #D8A700",
"m  c #D9A700",
"M  c #D7A800",
"N  c #D7A900",
"B  c #D8A800",
"V  c #D9A800",
"C  c #DAA800",
"Z  c #DAA900",
"A  c #DBA900",
"S  c #DCAA00",
"D  c #DDAA00",
"F  c #DCAB00",
"G  c #DDAB00",
"H  c #DEAA00",
"J  c #DEAB00",
"K  c #DFAB00",
"L  c #DEAC00",
"P  c #DFAC00",
"I  c #E0AC00",
"U  c #E1AD00",
"Y  c #E2AD00",
"T  c #E1AE00",
"R  c #E2AE00",
"E  c #E3AE00",
"W  c #E2AF00",
"Q  c #E3AF00",
"!  c #E4AF00",
"~  c #E4B000",
"^  c #E5B000",
"/  c #E6B000",
"(  c #E6B100",
")  c #E7B100",
"_  c #E7B200",
"`  c #E9B100",
"'  c #E8B200",
"]  c #E8B300",
"[  c #E9B300",
"{  c #EBB200",
"}  c #EAB300",
"|  c #EBB300",
" . c #ECB300",
".. c #E9B400",
"X. c #EAB400",
"o. c #EBB400",
"O. c #EAB500",
"+. c #EBB500",
"@. c #ECB400",
"#. c #ECB500",
"$. c #EDB500",
"%. c #EEB500",
"&. c #EDB600",
"*. c #EDB700",
"=. c #EEB600",
"-. c #EFB600",
";. c #EFB700",
":. c #EFB800",
">. c #F0B700",
",. c #F1B700",
"<. c #F0B800",
"1. c #F1B800",
"2. c #F0B900",
"3. c #F1B900",
"4. c #F2B800",
"5. c #F2B900",
"6. c #F3B900",
"7. c #F1BA00",
"8. c #F2BA00",
"9. c #F3BA00",
"0. c #F4B900",
"q. c #F5B900",
"w. c #F5BA00",
"e. c #F4BB00",
"r. c #F5BB00",
"t. c #F6BA00",
"y. c #F6BB00",
"u. c #F5BC00",
"i. c #F6BC00",
"p. c #F7BD00",
"a. c #F7BE00",
"s. c #F8BB00",
"d. c #F9BC00",
"f. c #F8BD00",
"g. c #F9BD00",
"h. c #FABC00",
"j. c #FABD00",
"k. c #FBBD00",
"l. c #F8BE00",
"z. c #F9BE00",
"x. c #F9BF00",
"c. c #FABE00",
"v. c #FABF00",
"b. c #FBBF00",
"n. c #FCBE00",
"m. c #FDBE00",
"M. c #FCBF00",
"N. c #FDBF00",
"B. c #FFBE00",
"V. c #FFBF00",
"C. c #FAC000",
"Z. c #FBC000",
"A. c #FBC100",
"S. c #FAC200",
"D. c #FCC000",
"F. c #FDC000",
"G. c #FCC100",
"H. c #FDC100",
"J. c #FEC000",
"K. c #FFC000",
"L. c #FEC100",
"P. c #FFC100",
"I. c #FCC200",
"U. c #FDC200",
"Y. c #FDC300",
"T. c #FEC200",
"R. c #FFC200",
"E. c #FEC300",
"W. c #FFC300",
"Q. c #FEC400",
"!. c #FFC400",
"~. c #FEC500",
"^. c #FFC500",
"/. c #FFC600",
"(. c #FFC700",
"). c None",
/* pixels */
").).).).).).).).).).).).).).).).).).).).0 h U ) U U M 9 ).).).).).).).).).).).).).).).).).).).).",
").).).).).).).).).).).).).).).).# J >.W.!.!.!.(.(.(.(.!.W.:.J # ).).).).).).).).).).).).).).).).",
").).).).).).).).).).).).).).9 $.W.!.W.W.W.>.) J B B U } u.W.!.!.$.9 ).).).).).).).).).).).).).).",
").).).).).).).).).).).).).} W.W.W.W.<.h ).).).).).).).).).9 B u.(.!.+.).).).).).).).).).).).).).",
").).).).).).).).).).).y b.W.B.!.r.y ).).).).).).).).).).).).).).a b.!.Z.a ).).).).).).).).).).).",
").).).).).).).).).).U !.W.W.!.U ).).).).).).).).).).).).).).).).).).) !.!.P ).).).).).).).).).).",
").).).).).).).).).U !.B.B.W.h ).).).).).).).).).).).).).).).).).).).).J !.!.~ ).).).).).).).).).",
").).).).).).).).J W.W.B.W.a ).).).).).).).).).).).).).).).).).).).).).).M !.!.P ).).).).).).).).",
").).).).).).).a !.B.W.W.B ).).).).).).).).).).).).).).).).).).).).).).).).U !.!.a ).).).).).).).",
").).).).).).).Z.W.B.W.} ).).).).).).).).).).).).).).).).).).).).).).).).).).<.W.Z.).).).).).).).",
").).).).).).+.W.B.W.B.).).).).).).).).).).).).).).).).).).).).).).).).).).)., W.W.+.).).).).).).",
").).).).).9 !.B.B.!.J ).).).).).9 P h 0 ).).).).).).).).).).).).).).).).).).).} W.W.e ).).).).).",
").).).).).<.W.B.B.W.).).).).).).).$.(.W.s.J ).).).).).).).).).h h ).).).).).).= W.W.>.).).).).).",
").).).).= W.B.B.W.} ).).).).).).).).} W.W.!.b.h ).).).).= ! W.!., ).).).).).).).<.W.W.= ).).).).",
").).).).U W.B.W.W.f ).).).).).).).).).u.W.B.W.!.) ).9 $.!.!.Z., ).).).).).).).).J W.W.U ).).).).",
").).).).r.W.B.B.W.@ ).).).).).).).).).h !.B.B.B.W.b.W.W.!.Z., ).).).).).).).).).9 W.W.r.).).).).",
").).).).W.B.W.B.B.).).).).).).).).).).).b.W.B.B.B.W.B.W.r.@ ).).).).).).).).).).).B.W.W.).).).).",
").).).a !.B.B.B.r.).).).).).).).).).).).! W.B.B.B.B.W.>.).).).).J B ).).).).).).).b.B.W.a ).).).",
").).).J W.B.B.W.<.).).).).).).).).).).).} W.B.B.B.B.W.r.).).).M !.!.M ).).).).).).u.W.W.J ).).).",
").).).! W.W.B.W.r.).).).).).).).).).).$.W.B.B.W.W.B.B.W.:.).).).P J ).).).).).).).u.B.W.) ).).).",
").).  +.W.B.B.B.s.).).).).).).).).).u.!.W.W.B.B.B.B.B.W.U ).).).$.h ).).).).).).).B.W.W.}   ).).",
").).X $.W.B.B.W.B.).).).).).).).O Z.!.W.$.s.B.W.B.B.W.B.b.).).} !.$.).).).).).).# W.B.B.$.  ).).",
").).).+.W.B.B.B.W.9 ).).).).).O Z.Y.U ).9 W.B.B.W.B.B.W.b.  y W.W.} ).).).).).).x !.B.W.+.).).).",
").).).! W.B.B.B.W.I ).).).).).9 x ).).).).$.W.B.B.B.B.B.} J b.W.b.).).).).).).).) !.W.W.U ).).).",
").).).B W.B.W.B.W.r.).).).).).).).).).).).! !.B.B.W.B.B.W.W.B.W.$.).).).).).).).b.W.B.W.B ).).).",
").).).9 W.B.B.B.B.W.0 ).).).).).).).).).).b.W.B.B.B.B.B.B.B.B.W.) ).).).).).).x W.B.B.W.y ).).).",
").).).).W.B.B.W.B.W.$.).).).).).).).).).a W.B.B.B.B.B.W.B.B.B.W.P ).).).).).).b.W.B.B.W.).).).).",
").).).).$.W.B.B.W.B.!.a ).).).).).).).).<.W.W.B.B.W.B.B.B.W.B.W.h ).).).).).P !.B.B.W.:.).).).).",
").).).).B !.B.B.B.B.W.b.).).).).).).).0 W.W.B.B.W.B.B.W.B.B.B.W.y ).).).).= W.W.B.B.W.h ).).).).",
").).).).).W.W.W.W.B.B.W.<.).).).).).).<.W.B.B.B.B.B.B.B.W.B.B.W.= ).).).).u.W.B.W.W.W.).).).).).",
").).).).).) W.B.B.B.B.B.!.<.).).).).M W.B.B.B.B.B.B.B.B.B.B.W.B.).).).).<.W.B.B.B.W.) ).).).).).",
").).).).).).W.B.B.W.B.B.W.!.<.).).9 B.W.B.W.B.B.W.B.B.W.B.B.W.u.).).= b.W.B.B.W.B.W.).).).).).).",
").).).).).).P !.W.B.W.B.B.B.W.b.} b.B.B.W.B.B.W.B.B.W.B.B.B.W.<.).B W.W.B.W.B.B.W.J ).).).).).).",
").).).).).).).:.W.B.B.B.W.B.B.B.W.W.B.B.B.B.B.B.B.B.B.B.B.W.W.U 0 !.B.B.B.B.B.W.<.).).).).).).).",
").).).).).).).# b.!.!.W.:.} b.W.B.B.B.B.B.B.B.B.W.B.B.W.B.B.W.n h W.B.W.W.B.W.Z.= ).).).).).).).",
").).).).).).).).= ) J y h $.B.B.B.B.W.B.W.B.B.W.B.B.B.B.B.B.W.f U W.B.B.B.B.W.9 ).).).).).).).).",
").).).).).).).).).).9 } W.W.B.B.B.B.B.B.W.B.B.W.B.B.W.B.W. .q.i  .W.W.B.W.W.y ).).).).).).).).).",
").).).).).).).).  u.W.W.W.B.B.B.W.B.B.W.B.B.B.B.W.B.B.B.W.U } a <.B.B.W.W.= ).).).).).).).).).).",
").).).).).).).).).9 b.W.B.B.B.W.B.B.B.B.B.B.B.B.B.B.W.B.W.a } i b.!.!.$.).).).).).).).).).).).).",
").).).).).).).).).).).) W.W.B.B.B.W.B.B.W.B.B.W.B.B.B.W.+.@ } n !.u.x ).).).).).).).).).).).).).",
").).).).).).).).).).).).9 $.W.W.B.W.B.B.B.B.B.B.W.B.W.!.@ ).$.a B ).).).).).).).).).).).).).).).",
").).).).).).).).).).).).).).# U s.W.W.W.W.W.B.W.W.W.W.h ).y ) ).).).).).).).).).).).).).).).).).",
").).).).).).).).).).).).).).).).).= h U } $.>.>. .I = ).).B B ).).).).).).).).).).).).).).).).).",
").).).).).).).).).).).).).).).).).).).).).).).).).).).).).! x ).).).).).).).).).).).).).).).).).",
").).).).).).).).).).).).).).).).).).).).).).).).).).).).).} 0 ).).).).).).).).).).).).).).).).).",
").).).).).).).).).).).).).).).).).).).).).).).).).).).).).$.).).).).).).).).).).).).).).).).).).",
").).).).).).).).).).).).).).).).).).).).).).).).).).).).).$.).).).).).).).).).).).).).).).).).).",
").).).).).).).).).).).).).).).).).).).).).).).).).).).).).9 ).).).).).).).).).).).).).).).).).)."
};
