/* XPM */
static char *_____________[] = {
/* columns rows colors chars-per-pixel */
"64 64 176 2",
"   c #B18C00",
".  c #B58F00",
"X  c #B49000",
"o  c #B69000",
"O  c #B79000",
"+  c #B79100",
"@  c #B89100",
"#  c #B89200",
"$  c #B99200",
"%  c #B99300",
"&  c #BA9200",
"*  c #BA9300",
"=  c #BB9300",
"-  c #BB9400",
";  c #BC9400",
":  c #BD9400",
">  c #BC9500",
",  c #BD9500",
"<  c #BE9500",
"1  c #BD9600",
"2  c #BE9600",
"3  c #BF9600",
"4  c #BF9700",
"5  c #C09600",
"6  c #C09700",
"7  c #C19700",
"8  c #C29700",
"9  c #C19800",
"0  c #C29900",
"q  c #C39900",
"w  c #C49900",
"e  c #C49A00",
"r  c #C59A00",
"t  c #C59B00",
"y  c #C69A00",
"u  c #C69B00",
"i  c #C79B00",
"p  c #C69C00",
"a  c #C79C00",
"s  c #C89C00",
"d  c #C89D00",
"f  c #C99D00",
"g  c #CA9D00",
"h  c #CA9E00",
"j  c #CB9E00",
"k  c #CB9F00",
"l  c #CC9E00",
"z  c #CC9F00",
"x  c #CD9F00",
"c  c #CDA000",
"v  c #CEA000",
"b  c #CFA000",
"n  c #CFA100",
"m  c #D0A100",
"M  c #D0A200",
"N  c #D1A200",
"B  c #D1A300",
"V  c #D2A200",
"C  c #D2A300",
"Z  c #D3A300",
"A  c #D2A400",
"S  c #D3A400",
"D  c #D4A400",
"F  c #D5A400",
"G  c #D5A500",
"H  c #D6A500",
"J  c #D6A600",
"K  c #D7A600",
"L  c #D7A700",
"P  c #D8A700",
"I  c #D9A700",
"U  c #DAA700",
"Y  c #D8A800",
"T  c #D9A800",
"R  c #DAA800",
"E  c #DAA900",
"W  c #DBA900",
"Q  c #DBAA00",
"!  c #DCA900",
"~  c #DDA900",
"^  c #DCAA00",
"/  c #DDAA00",
"(  c #DDAB00",
")  c #DEAB00",
"_  c #DFAB00",
"`  c #DEAC00",
"'  c #DFAC00",
"]  c #E0AC00",
"[  c #E0AD00",
"{  c #E1AD00",
"}  c #E2AD00",
"|  c #E2AE00",
" . c #E3AE00",
".. c #E3AF00",
"X. c #E4AE00",
"o. c #E4AF00",
"O. c #E5AF00",
"+. c #E4B000",
"@. c #E5B000",
"#. c #E6B000",
"$. c #E7B000",
"%. c #E6B100",
"&. c #E7B100",
"*. c #E7B200",
"=. c #E8B100",
"-. c #E8B200",
";. c #E9B200",
":. c #E8B300",
">. c #E9B300",
",. c #EAB200",
"<. c #EAB300",
"1. c #EBB400",
"2. c #EBB500",
"3. c #ECB400",
"4. c #EDB400",
"5. c #ECB500",
"6. c #EDB500",
"7. c #EEB500",
"8. c #EFB600",
"9. c #EFB700",
"0. c #F0B600",
"q. c #F0B700",
"w. c #F0B800",
"e. c #F2B800",
"r. c #F3B800",
"t. c #F2B900",
"y. c #F3B900",
"u. c #F3BA00",
"i. c #F4B900",
"p. c #F4BA00",
"a. c #F5BA00",
"s. c #F5BB00",
"d. c #F6BA00",
"f. c #F6BB00",
"g. c #F7BB00",
"h. c #F5BC00",
"j. c #F6BC00",
"k. c #F7BC00",
"l. c #F7BD00",
"z. c #F6BE00",
"x. c #F8BB00",
"c. c #F8BC00",
"v. c #F9BC00",
"b. c #F8BD00",
"n. c #F9BD00",
"m. c #FABD00",
"M. c #FBBD00",
"N. c #F9BE00",
"B. c #FABE00",
"V. c #FBBE00",
"C. c #FABF00",
"Z. c #FBBF00",
"A. c #FCBD00",
"S. c #FCBE00",
"D. c #FDBE00",
"F. c #FCBF00",
"G. c #FDBF00",
"H. c #FEBF00",
"J. c #FFBF00",
"K. c #FCC000",
"L. c #FDC000",
"P. c #FCC100",
"I. c #FDC100",
"U. c #FEC000",
"Y. c #FFC000",
"T. c #FEC100",
"R. c #FFC100",
"E. c #FDC200",
"W. c #FEC200",
"Q. c #FFC200",
"!. c #FFC300",
"~. c #FFC400",
"^. c #FFC500",
"/. c #FFC600",
"(. c #FFC700",
"). c None",
/* pixels */
").).).).).).).).).).).).).).).).).).).).).).).).).).)., j M R ) R R M a , ).).).).).).).).).).).).).).).).).).).).).).).).).).).",
").).).).).).).).).).).).).).).).).).).).).).)., R 9.N.R.~.~.R.R.~.R.~.~.R.N.9.J , ).).).).).).).).).).).).).).).).).).).).).).).",
").).).).).).).).).).).).).).).).).).).).).S t.R.R.R.J.J.R.R.R.R.~.~.~.R.~.R.R.R.R.t.J ).).).).).).).).).).).).).).).).).).).).).",
").).).).).).).).).).).).).).).).).).).R K.~.R.J.R.R.R.R.d.*.) J b b M P [ 9.N.R.R.R.R.N.R ).).).).).).).).).).).).).).).).).).).",
").).).).).).).).).).).).).).).).).M N.R.R.J.J.R.R.t.P , ).).).).).).).).).).).j *.N.R.R.~.N.M ).).).).).).).).).).).).).).).).).",
").).).).).).).).).).).).).).).).>.R.R.J.J.R.R.9.r ).).).).).).).).).).).).).).).).).R N.R.R.R.<.).).).).).).).).).).).).).).).).",
").).).).).).).).).).).).).).r N.R.J.J.J.R.h.j ).).).).).).).).).).).).).).).).).).).).).[ R.R.R.K.0 ).).).).).).).).).).).).).).",
").).).).).).).).).).).).).M R.R.J.J.R.R.*.).).).).).).).).).).).).).).).).).).).).).).).).j N.R.R.R.b ).).).).).).).).).).).).).",
").).).).).).).).).).).).S ~.R.J.R.R.R.J ).).).).).).).).).).).).).).).).).).).).).).).).).).@ d.R.R.~.M ).).).).).).).).).).).).",
").).).).).).).).).).).M R.R.J.J.R.R.b ).).).).).).).).).).).).).).).).).).).).).).).).).).).).).t.R.J.~.M ).).).).).).).).).).).",
").).).).).).).).).).r R.J.J.J.J.R.S ).).).).).).).).).).).).).).).).).).).).).).).).).).).).).).).t.R.R.R.r ).).).).).).).).).).",
").).).).).).).).).).N.R.J.J.R.R.` ).).).).).).).).).).).).).).).).).).).).).).).).).).).).).).).).@ N.R.R.N.).).).).).).).).).).",
").).).).).).).).).>.R.J.J.J.R.9.).).).).).).).).).).).).).).).).).).).).).).).).).).).).).).).).).).j ~.R.R.>.).).).).).).).).).",
").).).).).).).).S R.R.J.J.R.R., ).).).).).).).).).).).).).).).).).).).).).).).).).).).).).).).).).).).*.R.J.~.S ).).).).).).).).",
").).).).).).).).N.R.J.J.R.R.) ).).).).).).).).).).).).).).).).).).).).).).).).).).).).).).).).).).).).).J.R.R.N.).).).).).).).).",
").).).).).).).` R.J.J.J.J.J.).).).).).).)., <.<.O.R r ).).).).).).).).).).).).).).).).).).).).).).).).).` R.R.~.` ).).).).).).).",
").).).).).).).R.R.J.J.J.R.[ ).).).).).).).).M R.~.R.R.d.) ).).).).).).).).).).).).).b b ).).).).).).).).).R.J.J.N.).).).).).).).",
").).).).).).L R.J.J.J.J.R.4 ).).).).).).).).).0 K.R.R.R.R.J.J ).).).).).).).).j <.R.(.S ).).).).).).).).).<.R.R.R.R ).).).).).).",
").).).).).).h.R.J.J.R.R.t.).).).).).).).).).).).a R.J.J.R.R.R.t., ).).).).R d.R.R.~.R ).).).).).).).).).).b R.J.R.d.).).).).).).",
").).).).).0 R.J.J.J.J.R.` ).).).).).).).).).).).).[ R.R.J.J.R.R.N.j ).[ N.~.R.J.R.) ).).).).).).).).).).).).R.R.R.R.0 ).).).).).",
").).).).).` R.R.J.J.J.R.z ).).).).).).).).).).).).).N.R.J.J.J.J.R.J.N.R.R.J.J.~.R ).).).).).).).).).).).).).t.R.J.R.) ).).).).).",
").).).).).t.R.J.J.J.J.R.- ).).).).).).).).).).).).).[ R.J.J.J.J.J.R.R.R.J.J.R.M ).).).).).).).).).).).).).).*.R.J.R.t.).).).).).",
").).).).).R.J.J.J.J.J.J.).).).).).).).).).).).).).).0 R.J.J.J.J.J.J.J.J.R.R.j ).).).).).).).).).).).).).).).) R.J.R.R.).).).).).",
").).).).r R.J.J.J.J.R.d.).).).).).).).).).).).).).).).d.J.J.J.J.J.J.J.R.N.- ).).).).b [ O.z ).).).).).).).).Z R.J.J.~.r ).).).).",
").).).).S R.R.J.J.J.R.t.).).).).).).).).).).).).).).).d.R.J.J.J.J.J.J.J.J.r ).).)., ~.R.~.(.0 ).).).).).).).M ~.J.J.~.M ).).).).",
").).).).) R.J.J.J.J.R.t.).).).).).).).).).).).).).@ t.R.J.J.J.J.J.J.J.J.R.R.b ).).).c 9.9.c ).).).).).).).).M R.J.J.R.` ).).).).",
").).).).+.R.J.J.J.J.R.d.).).).).).).).).).).).).7 N.R.R.J.J.J.J.J.J.J.J.J.R.R ).).).).>.) ).).).).).).).).).J ~.J.J.R.[ ).).).).",
").).).. *.R.J.J.J.J.J.J.).).).).).).).).).).).j R.R.J.R.J.J.J.J.J.J.J.J.R.J.X ).).).7 N.R ).).).).).).).).).R R.J.J.R.<.X ).).).",
").).).X <.R.J.J.J.J.J.J.- ).).).).).).).).).b R.R.R.~.t.N.J.J.J.J.J.J.J.J.R.*.).).j R.J.R.j ).).).).).).).).*.R.J.R.R.>.@ ).).).",
").).).X *.R.J.J.J.J.R.R.j ).).).).).).).).b ~.R.R.d.b j J.R.J.J.J.J.J.J.J.J.~.).).h.R.R.R.).).).).).).).).).t.R.J.R.R.<.X ).).).",
").).).).*.R.J.J.J.J.J.R.) ).).).).).).).r ~.R.<.j ).).J ~.J.J.J.J.J.J.J.J.J.P ).[ R.J.R.9.).).).).).).).).).J.J.J.J.R.[ ).).).).",
").).).).) R.J.J.J.J.J.R.t.).).).).).).).0 z ).).).).).@ *.R.J.J.J.J.J.J.J.J.[ 9.R.J.R.x.. ).).).).).).).).b R.J.J.J.R.) ).).).).",
").).).).M ~.J.J.J.J.J.J.R.7 ).).).).).).).).).).).).).).` R.J.J.J.J.J.J.J.J.R.R.J.J.R.9.).).).).).).).).).>.~.J.J.J.R.M ).).).).",
").).).).r R.J.J.J.J.J.J.R.[ ).).).).).).).).).).).).).).d.R.J.J.J.J.J.J.J.J.J.J.J.J.R.*.).).).).).).).).@ R.R.J.J.J.R.r ).).).).",
").).).).).J.J.J.J.J.J.J.R.J.).).).).).).).).).).).).).r R.R.J.J.J.J.J.J.J.J.J.J.J.J.R.) ).).).).).).).).` R.J.J.J.R.J.).).).).).",
").).).).).9.R.J.J.J.J.J.R.R.` ).).).).).).).).).).).).+.R.J.J.J.J.J.J.J.J.J.J.J.J.R.R.J ).).).).).).).X N.J.J.J.J.R.9.).).).).).",
").).).).).) R.R.J.J.J.J.J.J.R., ).).).).).).).).).).).R.R.J.J.J.J.J.J.J.J.J.J.J.J.J.R.j ).).).).).).).*.R.R.J.J.R.~.) ).).).).).",
").).).).).0 R.R.J.J.J.J.J.J.R.9.).).).).).).).).).).) R.J.J.J.J.J.J.J.J.J.J.J.J.J.J.R.0 ).).).).).).j R.J.J.J.J.J.R.0 ).).).).).",
").).).).).).t.R.J.J.J.J.J.J.R.R.` ).).).).).).).).).N.R.J.J.J.J.J.J.J.J.J.J.J.J.J.J.R.).).).).).).@ K.R.J.J.J.J.R.t.).).).).).).",
").).).).).).S R.J.J.J.J.J.J.J.J.~.S ).).).).).).).[ R.J.J.J.J.J.J.J.J.J.J.J.J.J.J.R.N.).).).).).).d.R.R.J.J.J.J.R.J ).).).).).).",
").).).).).).).N.R.R.J.J.J.J.J.J.R.R.M ).).).).).0 R.R.J.J.J.J.J.J.J.J.J.J.J.J.J.J.R.t.).).).).).t.R.J.J.J.J.J.R.N.).).).).).).).",
").).).).).).).R R.J.J.J.J.J.J.J.R.R.~.J ).).).).d.R.J.J.J.J.J.J.J.J.J.J.J.J.J.J.J.R.9.).).).@ t.R.J.J.J.J.J.J.~.R ).).).).).).).",
").).).).).).).).h.R.J.J.J.J.J.J.J.J.J.R.*.).@ 0.R.J.J.J.J.J.J.J.J.J.J.J.J.J.J.J.R.R.[ ).).j N.R.J.J.J.J.J.J.R.h.).).).).).).).).",
").).).).).).).).c R.J.J.J.J.J.J.J.J.J.J.R.N.J.R.J.J.J.J.J.J.J.J.J.J.J.J.J.J.J.J.J.R.P ).*.R.R.J.J.J.J.J.J.J.~.b ).).).).).).).).",
").).).).).).).).).*.~.R.J.J.J.J.J.J.J.J.J.J.R.J.J.J.J.J.J.J.J.J.J.J.J.J.J.J.J.J.J.R.j b ~.J.J.J.J.J.J.J.J.R.*.).).).).).).).).).",
").).).).).).).).).).h.R.J.J.J.J.R.R.d.J.J.J.J.J.J.J.J.J.J.J.J.J.J.J.J.J.J.J.J.J.R.R.7 ) R.J.J.J.J.J.J.J.R.h.).).).).).).).).).).",
").).).).).).).).).)., K.R.R.~.R.<.M <.R.J.J.J.J.J.J.J.J.J.J.J.J.J.J.J.J.J.J.J.J.J.J.@ >.R.J.J.J.J.J.J.R.R.0 ).).).).).).).).).).",
").).).).).).).).).).).a *.` b 4 b 9.R.J.J.J.J.J.J.J.J.J.J.J.J.J.J.J.J.J.J.J.J.J.R.d.@ h.R.J.J.J.J.J.R.R.j ).).).).).).).).).).).",
").).).).).).).).).).).).).  z 0.R.R.R.J.J.J.J.J.J.J.J.J.J.J.J.J.J.J.J.J.J.J.J.<.d.9.- R.J.J.J.J.J.R.R.b ).).).).).).).).).).).).",
").).).).).).).).).).).7 <.N.R.R.J.J.J.J.J.J.J.J.J.J.J.J.J.J.J.J.J.J.J.J.J.J.R.) 0.[ r R.J.J.J.R.R.R.j ).).).).).).).).).).).).).",
").).).).).).).).).).).@ h.R.R.J.J.J.J.J.J.J.J.J.J.J.J.J.J.J.J.J.J.J.J.J.J.J.R.b d.P M ~.J.J.J.R.h., ).).).).).).).).).).).).).).",
").).).).).).).).).).).).).<.R.R.J.J.J.J.J.J.J.J.J.J.J.J.J.J.J.J.J.J.J.J.J.R.N., J.z R R.J.R.R.*.).).).).).).).).).).).).).).).).",
").).).).).).).).).).).).).).S J.R.R.J.J.J.J.J.J.J.J.J.J.J.J.J.J.J.J.J.J.R.R.R X R.r *.R.R.h.j ).).).).).).).).).).).).).).).).).",
").).).).).).).).).).).).).).).X *.R.R.J.J.J.J.J.J.J.J.J.J.J.J.J.J.J.J.J.R.N.).0 R.r N.N.J ).).).).).).).).).).).).).).).).).).).",
").).).).).).).).).).).).).).).).)., O.R.R.R.J.J.J.R.J.J.J.J.J.J.R.R.J.J.~.c ).b J., j ).).).).).).).).).).).).).).).).).).).).).",
").).).).).).).).).).).).).).).).).).).@ J 9.R.~.R.R.J.R.J.J.J.J.J.R.R.R.R ).).R d.).).).).).).).).).).).).).).).).).).).).).).).",
").).).).).).).).).).).).).).).).).).).).).).@ b ) 9.d.J.R.R.R.R.N.d.*.j ).).).*.>.).).).).).).).).).).).).).).).).).).).).).).).",
").).).).).).).).).).).).).).).).).).).).).).).).).).).).).- , @ ).).).).).).).9.[ ).).).).).).).).).).).).).).).).).).).).).).).",
").).).).).).).).).).).).).).).).).).).).).).).).).).).).).).).).).).).).).).).h.J ).).).).).).).).).).).).).).).).).).).).).).).",
").).).).).).).).).).).).).).).).).).).).).).).).).).).).).).).).).).).).).).).R.j ).).).).).).).).).).).).).).).).).).).).).).).",
").).).).).).).).).).).).).).).).).).).).).).).).).).).).).).).).).).).).).).).R., ).).).).).).).).).).).).).).).).).).).).).).).",
").).).).).).).).).).).).).).).).).).).).).).).).).).).).).).).).).).).).).).0 R.).).).).).).).).).).).).).).).).).).).).).).).).",
").).).).).).).).).).).).).).).).).).).).).).).).).).).).).).).).).).).).).).0 h.).).).).).).).).).).).).).).).).).).).).).).).).",
").).).).).).).).).).).).).).).).).).).).).).).).).).).).).).).).).).).).).).).j ).).).).).).).).).).).).).).).).).).).).).).).)."
};
